<?xml version="1.0" encoding="UTF-8"?>
<svg version="1.1" xmlns="http://www.w3.org/2000/svg" width="314" height="65">
<path d="M0 0 C103.62 0 207.24 0 314 0 C314 21.45 314 42.9 314 65 C210.38 65 106.76 65 0 65 C0 43.55 0 22.1 0 0 Z " fill="#3B82F6" transform="translate(0,0)"/>
<path d="M0 0 C19.14 0 38.28 0 58 0 C58 16.83 58 33.66 58 51 C38.86 51 19.72 51 0 51 C0 34.17 0 17.34 0 0 Z " fill="#3B82F6" transform="translate(246,6)"/>
<path d="M0 0 C19.14 0 38.28 0 58 0 C58 16.83 58 33.66 58 51 C38.86 51 19.72 51 0 51 C0 34.17 0 17.34 0 0 Z " fill="#3B82F6" transform="translate(166,6)"/>
<path d="M0 0 C18.15 0 36.3 0 55 0 C55 15.51 55 31.02 55 47 C36.85 47 18.7 47 0 47 C0 31.49 0 15.98 0 0 Z " fill="#3B82F6" transform="translate(9,8)"/>
<path d="M0 0 C2.31 0 4.62 0 7 0 C6.67 1.65 6.34 3.3 6 5 C25.8 4.67 45.6 4.34 66 4 C66 4.66 66 5.32 66 6 C37.29 6.495 37.29 6.495 8 7 C7.75050381 24.21702255 7.75050381 24.21702255 7.52197266 41.43432617 C7.48676144 43.59555286 7.4508396 45.75676814 7.4140625 47.91796875 C7.40270264 49.03675415 7.39134277 50.15553955 7.37963867 51.30822754 C7.35957764 52.38366821 7.3395166 53.45910889 7.31884766 54.56713867 C7.30552399 55.49757492 7.29220032 56.42801117 7.2784729 57.38664246 C6.97626263 60.22276578 6.17372777 62.41266397 5 65 C3.35 65 1.7 65 0 65 C0 43.55 0 22.1 0 0 Z " fill="#0D64AF" transform="translate(0,0)"/>
<path d="M0 0 C1.98 0 3.96 0 6 0 C6.95712891 1.71509766 6.95712891 1.71509766 7.93359375 3.46484375 C8.76814187 4.95577803 9.60278204 6.44666079 10.4375 7.9375 C10.85837891 8.69224609 11.27925781 9.44699219 11.71289062 10.22460938 C12.11572266 10.94326172 12.51855469 11.66191406 12.93359375 12.40234375 C13.30540771 13.06741943 13.67722168 13.73249512 14.06030273 14.41772461 C14.90347714 15.98577832 14.90347714 15.98577832 16 17 C18.97 11.39 21.94 5.78 25 0 C26.98 0 28.96 0 31 0 C31 9.24 31 18.48 31 28 C29.35 28 27.7 28 26 28 C25.67 22.39 25.34 16.78 25 11 C22.86122901 15.22568728 22.86122901 15.22568728 20.75292969 19.46655273 C18.49080657 23.80007355 18.49080657 23.80007355 15.765625 24.91015625 C15.18296875 24.93980469 14.6003125 24.96945313 14 25 C13.03980636 23.41779413 12.08192202 21.83418669 11.125 20.25 C10.59132813 19.36828125 10.05765625 18.4865625 9.5078125 17.578125 C8.25327503 15.43306093 7.11132031 13.22264061 6 11 C5.67 16.61 5.34 22.22 5 28 C3.35 28 1.7 28 0 28 C0 18.76 0 9.52 0 0 Z " fill="#D8E9F1" transform="translate(21,18)"/>
<path d="M0 0 C19.14 0 38.28 0 58 0 C58 16.83 58 33.66 58 51 C38.86 51 19.72 51 0 51 C0 34.17 0 17.34 0 0 Z M2 2 C2 17.51 2 33.02 2 49 C19.82 49 37.64 49 56 49 C56 33.49 56 17.98 56 2 C38.18 2 20.36 2 2 2 Z " fill="#A4D0EA" transform="translate(166,6)"/>
<path d="M0 0 C1.4540625 0.0309375 1.4540625 0.0309375 2.9375 0.0625 C4.6125644 4.16328931 6.27610345 8.26865636 7.9375 12.375 C8.41445312 13.54224609 8.89140625 14.70949219 9.3828125 15.91210938 C9.83398438 17.03037109 10.28515625 18.14863281 10.75 19.30078125 C11.16894531 20.33243408 11.58789062 21.36408691 12.01953125 22.42700195 C12.9375 25.0625 12.9375 25.0625 12.9375 28.0625 C11.2875 28.0625 9.6375 28.0625 7.9375 28.0625 C7.2775 26.4125 6.6175 24.7625 5.9375 23.0625 C1.9775 23.0625 -1.9825 23.0625 -6.0625 23.0625 C-7.0525 25.5375 -7.0525 25.5375 -8.0625 28.0625 C-10.0425 28.0625 -12.0225 28.0625 -14.0625 28.0625 C-12.66017844 24.23429497 -11.25426567 20.40743069 -9.8449707 16.58178711 C-9.36578376 15.27941907 -8.88759007 13.97668515 -8.41040039 12.67358398 C-7.72541662 10.80357119 -7.03659463 8.93496573 -6.34765625 7.06640625 C-5.72709351 5.37753296 -5.72709351 5.37753296 -5.09399414 3.65454102 C-3.66948284 0.0748874 -3.66948284 0.0748874 0 0 Z " fill="#F3F5EF" transform="translate(116.0625,17.9375)"/>
<path d="M0 0 C19.14 0 38.28 0 58 0 C58 16.83 58 33.66 58 51 C38.86 51 19.72 51 0 51 C0 34.17 0 17.34 0 0 Z M1 2 C1 17.51 1 33.02 1 49 C19.15 49 37.3 49 56 49 C56 33.49 56 17.98 56 2 C37.85 2 19.7 2 1 2 Z " fill="#A5D3EB" transform="translate(246,6)"/>
<path d="M0 0 C19.14 0 38.28 0 58 0 C58 16.83 58 33.66 58 51 C38.86 51 19.72 51 0 51 C0 34.17 0 17.34 0 0 Z M1 2 C1 17.51 1 33.02 1 49 C19.15 49 37.3 49 56 49 C56 33.49 56 17.98 56 2 C37.85 2 19.7 2 1 2 Z " fill="#A8D8F4" transform="translate(87,6)"/>
<path d="M0 0 C19.14 0 38.28 0 58 0 C58 16.83 58 33.66 58 51 C38.86 51 19.72 51 0 51 C0 34.17 0 17.34 0 0 Z M1 2 C1 17.51 1 33.02 1 49 C19.15 49 37.3 49 56 49 C56 33.49 56 17.98 56 2 C37.85 2 19.7 2 1 2 Z " fill="#A6D4EC" transform="translate(8,6)"/>
<path d="M0 0 C1.98 0 3.96 0 6 0 C6 3.96 6 7.92 6 12 C10.29 12 14.58 12 19 12 C19 8.04 19 4.08 19 0 C20.65 0 22.3 0 24 0 C24 9.24 24 18.48 24 28 C22.35 28 20.7 28 19 28 C19 24.04 19 20.08 19 16 C14.71 16 10.42 16 6 16 C6 19.96 6 23.92 6 28 C4.02 28 2.04 28 0 28 C0 18.76 0 9.52 0 0 Z " fill="#D7E5E9" transform="translate(262,18)"/>
<path d="M0 0 C0.99 0.66 1.98 1.32 3 2 C2.34 3.32 1.68 4.64 1 6 C-1.97 5.67 -4.94 5.34 -8 5 C-8.33 6.65 -8.66 8.3 -9 10 C-8.38511719 10.18175781 -7.77023438 10.36351562 -7.13671875 10.55078125 C-5.92435547 10.92783203 -5.92435547 10.92783203 -4.6875 11.3125 C-3.48673828 11.67794922 -3.48673828 11.67794922 -2.26171875 12.05078125 C0.17240623 13.07235702 1.41704569 13.89607338 3 16 C3.75294118 22.77647059 3.75294118 22.77647059 1.5 26.4375 C-1.87855922 28.54909951 -5.06839517 29.2259543 -9 29 C-12.5 27.5625 -12.5 27.5625 -15 26 C-14.67 24.68 -14.34 23.36 -14 22 C-13.484375 22.165 -12.96875 22.33 -12.4375 22.5 C-9.26636124 23.15049 -6.22781666 23.0620734 -3 23 C-3 21.35 -3 19.7 -3 18 C-3.92232422 17.63648438 -3.92232422 17.63648438 -4.86328125 17.265625 C-13.28479543 13.77345006 -13.28479543 13.77345006 -15 10 C-15.5 7.5625 -15.5 7.5625 -15 5 C-11.13924843 -0.79112735 -6.45391815 -1.03919021 0 0 Z " fill="#E2EFF2" transform="translate(201,18)"/>
<path d="M0 0 C1.65 0 3.3 0 5 0 C5 9.24 5 18.48 5 28 C3.35 28 1.7 28 0 28 C0 23.71 0 19.42 0 15 C-4.29 15 -8.58 15 -13 15 C-13 14.34 -13 13.68 -13 13 C-8.71 13 -4.42 13 0 13 C0 8.71 0 4.42 0 0 Z " fill="#F7F6EA" transform="translate(281,18)"/>
<path d="M0 0 C-0.33 0.99 -0.66 1.98 -1 3 C-1.66 3 -2.32 3 -3 3 C-3.12375 4.010625 -3.2475 5.02125 -3.375 6.0625 C-3.98085335 9.87937612 -4.87193912 13.31500112 -6 17 C-2.7 17.66 0.6 18.32 4 19 C4 19.33 4 19.66 4 20 C0.04 20.33 -3.92 20.66 -8 21 C-8.99 23.475 -8.99 23.475 -10 26 C-11.98 26 -13.96 26 -16 26 C-14.76867344 22.4099751 -13.5117505 18.82943404 -12.25 15.25 C-11.90195313 14.23421875 -11.55390625 13.2184375 -11.1953125 12.171875 C-10.84726563 11.1921875 -10.49921875 10.2125 -10.140625 9.203125 C-9.82641602 8.30239258 -9.51220703 7.40166016 -9.18847656 6.47363281 C-6.92725274 1.76724009 -5.31061977 0 0 0 Z " fill="#CBDBE3" transform="translate(118,20)"/>
<path d="M0 0 C1.32 0.33 2.64 0.66 4 1 C4 9.25 4 17.5 4 26 C3.01 26 2.02 26 1 26 C0.98018066 25.43490723 0.96036133 24.86981445 0.93994141 24.28759766 C0.84481764 21.73292003 0.73508942 19.17907459 0.625 16.625 C0.57859375 15.29082031 0.57859375 15.29082031 0.53125 13.9296875 C0.49257813 13.07890625 0.45390625 12.228125 0.4140625 11.3515625 C0.3826416 10.56604004 0.3512207 9.78051758 0.31884766 8.97119141 C0.1600535 6.76997061 0.1600535 6.76997061 -2 5 C-1.34 4.34 -0.68 3.68 0 3 C0 2.01 0 1.02 0 0 Z " fill="#F6FAF6" transform="translate(47,20)"/>
<path d="M0 0 C2.475 0.99 2.475 0.99 5 2 C4.76228882 3.08704224 4.76228882 3.08704224 4.51977539 4.19604492 C4.03901777 6.78951662 3.80242678 9.2319784 3.68359375 11.86328125 C3.64169922 12.74951172 3.59980469 13.63574219 3.55664062 14.54882812 C3.49766602 15.9168457 3.49766602 15.9168457 3.4375 17.3125 C3.39431641 18.24384766 3.35113281 19.17519531 3.30664062 20.13476562 C3.20102775 22.42304454 3.09892248 24.71142372 3 27 C2.01 27 1.02 27 0 27 C0 18.09 0 9.18 0 0 Z " fill="#F6F7F1" transform="translate(22,19)"/>
<path d="M0 0 C1.65 0 3.3 0 5 0 C5 9.24 5 18.48 5 28 C3.35 28 1.7 28 0 28 C0 24.04 0 20.08 0 16 C0.66 16 1.32 16 2 16 C2 19.63 2 23.26 2 27 C2.66 27 3.32 27 4 27 C4 18.75 4 10.5 4 2 C3.34 2 2.68 2 2 2 C2 5.3 2 8.6 2 12 C1.34 12 0.68 12 0 12 C0 8.04 0 4.08 0 0 Z " fill="#E2F5FC" transform="translate(281,18)"/>
<path d="M0 0 C1.98 0 3.96 0 6 0 C8.70361469 3.24433763 9 4.70892052 9 9 C7.68 9 6.36 9 5 9 C5 15.27 5 21.54 5 28 C4.67 28 4.34 28 4 28 C3.97082772 24.77085248 3.95314337 21.54173917 3.9375 18.3125 C3.92912109 17.40048828 3.92074219 16.48847656 3.91210938 15.54882812 C3.90888672 14.66259766 3.90566406 13.77636719 3.90234375 12.86328125 C3.89710693 12.05157471 3.89187012 11.23986816 3.88647461 10.40356445 C4.0070209 7.85135327 4.440051 5.48973863 5 3 C4.01 3 3.02 3 2 3 C1.67 11.25 1.34 19.5 1 28 C0.67 28 0.34 28 0 28 C0 18.76 0 9.52 0 0 Z " fill="#C8E0F0" transform="translate(21,18)"/>
<path d="M0 0 C2.61585942 0.10258272 4.7068362 0.36171883 7.1875 1.125 C7.875 2.875 7.875 2.875 8.1875 5.125 C6.75 7.375 6.75 7.375 5.1875 9.125 C2.2175 8.135 -0.7525 7.145 -3.8125 6.125 C-3.855221 4.45888095 -3.85313832 2.79117115 -3.8125 1.125 C-2.8125 0.125 -2.8125 0.125 0 0 Z " fill="#206CAE" transform="translate(195.8125,21.875)"/>
<path d="M0 0 C-0.33 0.99 -0.66 1.98 -1 3 C-1.66 3 -2.32 3 -3 3 C-3.12375 4.03125 -3.2475 5.0625 -3.375 6.125 C-3.93889814 9.62116846 -4.78682059 12.68397627 -6 16 C-6.99 16 -7.98 16 -9 16 C-9.02712066 14.56260487 -9.04645067 13.12506137 -9.0625 11.6875 C-9.07410156 10.88699219 -9.08570312 10.08648437 -9.09765625 9.26171875 C-8.95875736 6.04482043 -8.24080613 4.29062809 -6.1875 1.8125 C-4 0 -4 0 0 0 Z " fill="#E9F1EE" transform="translate(118,20)"/>
<path d="M0 0 C0.66 0 1.32 0 2 0 C2.50559908 1.43554025 3.0042749 2.8735202 3.5 4.3125 C3.7784375 5.11300781 4.056875 5.91351563 4.34375 6.73828125 C5 9 5 9 5 12 C2.36 12 -0.28 12 -3 12 C-2.40075776 7.80530429 -1.42500059 3.99000166 0 0 Z " fill="#2971AD" transform="translate(115,24)"/>
<path d="M0 0 C2.97 0.99 5.94 1.98 9 3 C9.042721 4.66611905 9.04063832 6.33382885 9 8 C8 9 8 9 4.6875 9.25 C0.90232794 8.99337817 -0.33025858 8.56295176 -3 6 C-2.195625 5.87625 -1.39125 5.7525 -0.5625 5.625 C0.283125 5.41875 1.12875 5.2125 2 5 C2.33 4.34 2.66 3.68 3 3 C2.01 2.67 1.02 2.34 0 2 C0 1.34 0 0.68 0 0 Z " fill="#216AAA" transform="translate(190,33)"/>
<path d="M0 0 C1.98 0 3.96 0 6 0 C6.89395329 1.90790032 7.76459334 3.82673806 8.625 5.75 C9.11226562 6.81734375 9.59953125 7.8846875 10.1015625 8.984375 C11 12 11 12 10.1484375 14.390625 C9.76945312 14.92171875 9.39046875 15.4528125 9 16 C8.71125 14.865625 8.4225 13.73125 8.125 12.5625 C7.75375 11.386875 7.3825 10.21125 7 9 C6.34 8.67 5.68 8.34 5 8 C4.67 8.66 4.34 9.32 4 10 C4 8.68 4 7.36 4 6 C3.34 5.67 2.68 5.34 2 5 C2.99 4.01 3.98 3.02 5 2 C1.73045798 2.56371414 0.17424117 3.49962266 -2 6 C-1.34 4.02 -0.68 2.04 0 0 Z " fill="#D8EAF1" transform="translate(113,18)"/>
<path d="M0 0 C0.33 0 0.66 0 1 0 C1 5.94 1 11.88 1 18 C0.67 18 0.34 18 0 18 C-0.33 14.37 -0.66 10.74 -1 7 C-1.37125 8.093125 -1.7425 9.18625 -2.125 10.3125 C-3.46013408 13.46827146 -3.97715475 13.98554688 -7.0625 15.9375 C-10 17 -10 17 -12 17 C-12 16.34 -12 15.68 -12 15 C-11.42765625 14.98066406 -10.8553125 14.96132813 -10.265625 14.94140625 C-6.67722126 13.45036263 -5.48512175 10.22459175 -3.75 6.9375 C-3.38648438 6.27427734 -3.02296875 5.61105469 -2.6484375 4.92773438 C-1.75383252 3.29154895 -0.87533933 1.64657276 0 0 Z " fill="#2C6CA3" transform="translate(46,28)"/>
<path d="M0 0 C0.99 0.33 1.98 0.66 3 1 C4.61729417 4.67566856 4.06546005 9.07239675 4 13 C0.04 13 -3.92 13 -8 13 C-7.34 12.01 -6.68 11.02 -6 10 C-4.0546875 9.70703125 -4.0546875 9.70703125 -1.875 9.8125 C-0.59625 9.874375 0.6825 9.93625 2 10 C1.505 8.63875 1.505 8.63875 1 7.25 C0 4 0 4 0 0 Z " fill="#F1F6F5" transform="translate(118,26)"/>
<path d="M0 0 C1.11841368 2.08770553 1.9708176 3.85408801 2.4375 6.1875 C2.623125 6.785625 2.80875 7.38375 3 8 C3.99 8.33 4.98 8.66 6 9 C6 8.34 6 7.68 6 7 C5.34 7 4.68 7 4 7 C4 5.35 4 3.7 4 2 C4.0825 2.61875 4.165 3.2375 4.25 3.875 C4.81258459 6.18437567 4.81258459 6.18437567 7.0625 7.25 C7.701875 7.4975 8.34125 7.745 9 8 C8.34 9.32 7.68 10.64 7 12 C3.1281583 10.74426756 0.97161329 9.63191921 -1 6 C-1.25 3.3125 -1.25 3.3125 -1 1 C-0.67 0.67 -0.34 0.34 0 0 Z " fill="#D4E4EC" transform="translate(187,22)"/>
<path d="M0 0 C0.99 0 1.98 0 3 0 C3 8.25 3 16.5 3 25 C2.67 25 2.34 25 2 25 C2 18.73 2 12.46 2 6 C1.01 6.33 0.02 6.66 -1 7 C-1 4.37886292 -0.68707555 2.49064888 0 0 Z " fill="#F5F3E7" transform="translate(47,20)"/>
<path d="M0 0 C2.95987945 2.95987945 4.40595059 5.17428142 6 9 C5.67 9.99 5.34 10.98 5 12 C3.68 10.68 2.36 9.36 1 8 C1 11.63 1 15.26 1 19 C0.67 19 0.34 19 0 19 C0 12.73 0 6.46 0 0 Z " fill="#3C77A6" transform="translate(26,27)"/>
<path d="M0 0 C5.75 0.75 5.75 0.75 8 3 C8.125 6.625 8.125 6.625 8 10 C7.34 10 6.68 10 6 10 C5.773125 9.195625 5.54625 8.39125 5.3125 7.5625 C4.879375 6.716875 4.44625 5.87125 4 5 C1.45224694 4.10613836 1.45224694 4.10613836 -1 4 C-0.67 2.68 -0.34 1.36 0 0 Z " fill="#ECF5F4" transform="translate(195,30)"/>
<path d="M0 0 C1.32 0 2.64 0 4 0 C3.67 2.97 3.34 5.94 3 9 C3.66 9 4.32 9 5 9 C5 9.66 5 10.32 5 11 C3.68 10.67 2.36 10.34 1 10 C0.22157062 6.59437148 -0.09978121 3.49234244 0 0 Z " fill="#F0F3ED" transform="translate(188,20)"/>
<path d="M0 0 C0.66 0 1.32 0 2 0 C2.33 2.97 2.66 5.94 3 9 C1.02 9 -0.96 9 -3 9 C-2.01 6.03 -1.02 3.06 0 0 Z " fill="#E1EFF2" transform="translate(105,37)"/>
<path d="M0 0 C2.18975773 3.28463659 2.99806563 6.20696275 4 10 C2.68 10 1.36 10 0 10 C0 6.7 0 3.4 0 0 Z " fill="#CADFEC" transform="translate(124,32)"/>
<path d="M0 0 C0.66 0 1.32 0 2 0 C3.5625 2.8125 3.5625 2.8125 5 6 C4.67 6.99 4.34 7.98 4 9 C0.06153846 5.67692308 0.06153846 5.67692308 -0.25 2.25 C-0.1675 1.5075 -0.085 0.765 0 0 Z " fill="#2A6EA9" transform="translate(27,30)"/>
<path d="M0 0 C1.65 0 3.3 0 5 0 C5.33 1.32 5.66 2.64 6 4 C4.35 4 2.7 4 1 4 C0.67 2.68 0.34 1.36 0 0 Z " fill="#E3F1F7" transform="translate(123,42)"/>
<path d="M0 0 C0.66 0 1.32 0 2 0 C2 1.65 2 3.3 2 5 C0.68 5.33 -0.64 5.66 -2 6 C-2 4.68 -2 3.36 -2 2 C-1.34 2 -0.68 2 0 2 C0 1.34 0 0.68 0 0 Z " fill="#F2F5F1" transform="translate(38,35)"/>
<path d="M0 0 C0.66 0 1.32 0 2 0 C2.33 1.98 2.66 3.96 3 6 C2.01 5.67 1.02 5.34 0 5 C0 5.99 0 6.98 0 8 C-0.66 8 -1.32 8 -2 8 C-1.34 5.36 -0.68 2.72 0 0 Z " fill="#457CA5" transform="translate(115,24)"/>
<path d="M0 0 C1.88391785 3.26545761 2.49287967 6.28111761 3 10 C-0.91941982 6.69298952 -0.91941982 6.69298952 -1.3125 3.3125 C-1 1 -1 1 0 0 Z " fill="#C8E1EF" transform="translate(187,22)"/>
<path d="M0 0 C3.875 0.875 3.875 0.875 5 2 C5.04063832 3.66617115 5.042721 5.33388095 5 7 C4.34 7 3.68 7 3 7 C2.690625 6.21625 2.38125 5.4325 2.0625 4.625 C1.07124962 2.07669872 1.07124962 2.07669872 0 0 Z " fill="#F5F3E9" transform="translate(198,33)"/>
<path d="M0 0 C4.875 1.75 4.875 1.75 6 4 C5.01 4.99 4.02 5.98 3 7 C0 2.25 0 2.25 0 0 Z " fill="#276AA1" transform="translate(33,29)"/>
</svg>
