<svg version="1.1" id="Layer_1" xmlns="http://www.w3.org/2000/svg" xmlns:xlink="http://www.w3.org/1999/xlink" x="0px" y="0px"
	 width="100%" viewBox="0 0 824 282" enable-background="new 0 0 824 282" xml:space="preserve">
<path fill="#FEFFFF" opacity="0.000000" stroke="none" 
	d="
M532.000000,283.000000 
	C354.706635,283.000000 177.913254,283.000000 1.059936,283.000000 
	C1.059936,189.061234 1.059936,95.122414 1.059936,1.091797 
	C275.543365,1.091797 550.086792,1.091797 824.815063,1.091797 
	C824.815063,94.999710 824.815063,188.999817 824.815063,283.000000 
	C727.455750,283.000000 629.977844,283.000000 532.000000,283.000000 
M232.998917,177.500000 
	C232.998917,131.415115 232.998917,85.330215 232.998917,39.002533 
	C219.779282,39.002533 207.291290,38.880035 194.812561,39.164005 
	C193.322296,39.197922 191.249054,41.147781 190.515900,42.711254 
	C182.049103,60.766819 173.764053,78.907921 165.480698,97.049118 
	C157.613174,114.279671 149.831604,131.549500 141.960709,148.778503 
	C136.952393,159.741440 131.850143,170.661469 126.426041,182.387573 
	C124.556114,178.263794 123.066154,174.960205 121.561790,171.663193 
	C111.429604,149.457230 101.304268,127.248138 91.157234,105.048958 
	C81.700516,84.360046 72.180351,63.699970 62.794170,42.979160 
	C61.472469,40.061390 59.900993,38.731979 56.450558,38.899807 
	C49.467186,39.239479 42.455704,39.001129 35.455811,39.001122 
	C30.365400,39.001114 25.274992,39.001122 20.275646,39.001122 
	C20.275646,105.368057 20.275646,170.966492 20.275646,236.569214 
	C34.410534,236.569214 48.266567,236.569214 62.584473,236.569214 
	C62.584473,202.189789 62.584473,168.237717 62.584473,134.285629 
	C62.816418,134.254227 63.048367,134.222824 63.280312,134.191437 
	C78.178665,168.410461 93.077019,202.629486 108.038788,236.994156 
	C119.584282,236.994156 130.904678,237.093170 142.217972,236.854874 
	C143.474380,236.828400 145.250214,235.126846 145.842514,233.785797 
	C158.316177,205.543503 170.651337,177.240051 183.021301,148.951950 
	C185.227570,143.906555 187.467911,138.876083 189.692520,133.838715 
	C190.071838,133.929596 190.451157,134.020493 190.830475,134.111374 
	C190.830475,168.287338 190.830475,202.463303 190.830475,236.698364 
	C205.132874,236.698364 218.876053,236.698364 232.998917,236.698364 
	C232.998917,217.100113 232.998917,197.800049 232.998917,177.500000 
M772.000122,190.500000 
	C772.000122,204.779251 772.000122,219.058517 772.000122,233.502960 
	C785.580139,233.502960 798.623413,233.502960 811.647461,233.502960 
	C811.647461,169.606949 811.647461,106.060852 811.647461,42.406509 
	C798.374817,42.406509 785.455688,42.406509 772.003540,42.406509 
	C772.003540,68.217743 772.003540,93.777641 772.003540,119.510300 
	C746.094238,119.510300 720.720947,119.510300 694.814270,119.510300 
	C694.814270,93.611954 694.814270,68.052040 694.814270,42.413536 
	C681.358826,42.413536 668.439575,42.413536 655.261353,42.413536 
	C655.261353,106.225174 655.261353,169.771027 655.261353,233.510254 
	C668.563416,233.510254 681.606689,233.510254 695.182373,233.510254 
	C695.182373,207.613174 695.182373,182.053314 695.182373,156.406250 
	C720.966309,156.406250 746.215393,156.406250 772.000122,156.406250 
	C772.000122,167.605698 772.000122,178.552856 772.000122,190.500000 
M592.095520,129.284714 
	C589.376892,128.044449 586.705444,126.685295 583.931458,125.584595 
	C572.203369,120.931007 560.373779,116.525337 548.721497,111.691200 
	C540.553284,108.302513 535.374268,102.206360 535.594543,92.989113 
	C535.801819,84.316803 540.983459,78.896797 548.862183,76.099251 
	C560.066223,72.120979 570.579468,74.241768 579.961609,81.072388 
	C585.562622,85.150253 590.499329,90.140739 596.083679,95.026390 
	C603.217712,90.860016 611.805725,85.789139 620.456543,80.827660 
	C622.898926,79.426872 623.728882,78.130333 622.107544,75.311592 
	C602.539368,41.291866 557.252136,28.820374 522.962402,48.016773 
	C485.595001,68.936142 489.754425,116.305328 516.853027,133.525787 
	C527.256165,140.136688 538.943359,144.761124 550.161438,150.044479 
	C559.291321,154.344299 568.815979,157.851074 577.751038,162.505264 
	C585.058655,166.311752 587.660889,173.447891 587.445557,181.445145 
	C587.239563,189.095001 583.485474,194.741272 576.645020,198.120987 
	C562.654541,205.033386 542.497620,201.859741 531.762207,190.671387 
	C527.229187,185.947113 523.580444,180.374420 519.223999,174.795868 
	C509.550873,179.880341 499.603424,185.109009 489.537354,190.400024 
	C493.996674,203.919189 502.283295,214.022583 512.931274,222.464798 
	C537.077515,241.609161 577.272034,241.651993 602.373962,226.277466 
	C627.247070,211.043091 636.337219,180.819504 623.020874,156.170212 
	C616.257690,143.651077 604.893250,136.150513 592.095520,129.284714 
M440.692047,195.742035 
	C414.723267,143.847412 388.754486,91.952805 362.374207,39.235912 
	C329.201080,105.587906 296.513306,170.969086 263.590027,236.821259 
	C329.772034,236.821259 395.142609,236.821259 461.162384,236.821259 
	C454.312683,223.097946 447.655426,209.760162 440.692047,195.742035 
z"/>
<path fill="#3F7BF2" opacity="1.000000" stroke="none" 
	d="
M232.998917,178.000000 
	C232.998917,197.800049 232.998917,217.100113 232.998917,236.698364 
	C218.876053,236.698364 205.132874,236.698364 190.830475,236.698364 
	C190.830475,202.463303 190.830475,168.287338 190.830475,134.111374 
	C190.451157,134.020493 190.071838,133.929596 189.692520,133.838715 
	C187.467911,138.876083 185.227570,143.906555 183.021301,148.951950 
	C170.651337,177.240051 158.316177,205.543503 145.842514,233.785797 
	C145.250214,235.126846 143.474380,236.828400 142.217972,236.854874 
	C130.904678,237.093170 119.584282,236.994156 108.038788,236.994156 
	C93.077019,202.629486 78.178665,168.410461 63.280312,134.191437 
	C63.048367,134.222824 62.816418,134.254227 62.584473,134.285629 
	C62.584473,168.237717 62.584473,202.189789 62.584473,236.569214 
	C48.266567,236.569214 34.410534,236.569214 20.275646,236.569214 
	C20.275646,170.966492 20.275646,105.368057 20.275646,39.001122 
	C25.274992,39.001122 30.365400,39.001114 35.455811,39.001122 
	C42.455704,39.001129 49.467186,39.239479 56.450558,38.899807 
	C59.900993,38.731979 61.472469,40.061390 62.794170,42.979160 
	C72.180351,63.699970 81.700516,84.360046 91.157234,105.048958 
	C101.304268,127.248138 111.429604,149.457230 121.561790,171.663193 
	C123.066154,174.960205 124.556114,178.263794 126.426041,182.387573 
	C131.850143,170.661469 136.952393,159.741440 141.960709,148.778503 
	C149.831604,131.549500 157.613174,114.279671 165.480698,97.049118 
	C173.764053,78.907921 182.049103,60.766819 190.515900,42.711254 
	C191.249054,41.147781 193.322296,39.197922 194.812561,39.164005 
	C207.291290,38.880035 219.779282,39.002533 232.998917,39.002533 
	C232.998917,85.330215 232.998917,131.415115 232.998917,178.000000 
z"/>
<path fill="#3F7BF2" opacity="1.000000" stroke="none" 
	d="
M772.000122,190.000000 
	C772.000122,178.552856 772.000122,167.605698 772.000122,156.406250 
	C746.215393,156.406250 720.966309,156.406250 695.182373,156.406250 
	C695.182373,182.053314 695.182373,207.613174 695.182373,233.510254 
	C681.606689,233.510254 668.563416,233.510254 655.261353,233.510254 
	C655.261353,169.771027 655.261353,106.225174 655.261353,42.413536 
	C668.439575,42.413536 681.358826,42.413536 694.814270,42.413536 
	C694.814270,68.052040 694.814270,93.611954 694.814270,119.510300 
	C720.720947,119.510300 746.094238,119.510300 772.003540,119.510300 
	C772.003540,93.777641 772.003540,68.217743 772.003540,42.406509 
	C785.455688,42.406509 798.374817,42.406509 811.647461,42.406509 
	C811.647461,106.060852 811.647461,169.606949 811.647461,233.502960 
	C798.623413,233.502960 785.580139,233.502960 772.000122,233.502960 
	C772.000122,219.058517 772.000122,204.779251 772.000122,190.000000 
z"/>
<path fill="#407BF2" opacity="1.000000" stroke="none" 
	d="
M592.413513,129.481415 
	C604.893250,136.150513 616.257690,143.651077 623.020874,156.170212 
	C636.337219,180.819504 627.247070,211.043091 602.373962,226.277466 
	C577.272034,241.651993 537.077515,241.609161 512.931274,222.464798 
	C502.283295,214.022583 493.996674,203.919189 489.537354,190.400024 
	C499.603424,185.109009 509.550873,179.880341 519.223999,174.795868 
	C523.580444,180.374420 527.229187,185.947113 531.762207,190.671387 
	C542.497620,201.859741 562.654541,205.033386 576.645020,198.120987 
	C583.485474,194.741272 587.239563,189.095001 587.445557,181.445145 
	C587.660889,173.447891 585.058655,166.311752 577.751038,162.505264 
	C568.815979,157.851074 559.291321,154.344299 550.161438,150.044479 
	C538.943359,144.761124 527.256165,140.136688 516.853027,133.525787 
	C489.754425,116.305328 485.595001,68.936142 522.962402,48.016773 
	C557.252136,28.820374 602.539368,41.291866 622.107544,75.311592 
	C623.728882,78.130333 622.898926,79.426872 620.456543,80.827660 
	C611.805725,85.789139 603.217712,90.860016 596.083679,95.026390 
	C590.499329,90.140739 585.562622,85.150253 579.961609,81.072388 
	C570.579468,74.241768 560.066223,72.120979 548.862183,76.099251 
	C540.983459,78.896797 535.801819,84.316803 535.594543,92.989113 
	C535.374268,102.206360 540.553284,108.302513 548.721497,111.691200 
	C560.373779,116.525337 572.203369,120.931007 583.931458,125.584595 
	C586.705444,126.685295 589.376892,128.044449 592.413513,129.481415 
z"/>
<path fill="#427DF2" opacity="1.000000" stroke="none" 
	d="
M440.845093,196.082214 
	C447.655426,209.760162 454.312683,223.097946 461.162384,236.821259 
	C395.142609,236.821259 329.772034,236.821259 263.590027,236.821259 
	C296.513306,170.969086 329.201080,105.587906 362.374207,39.235912 
	C388.754486,91.952805 414.723267,143.847412 440.845093,196.082214 
M375.500000,187.995468 
	C389.526154,187.995468 403.552307,187.995468 418.211334,187.995468 
	C399.445892,150.466644 381.103210,113.783257 362.361176,76.301277 
	C338.091797,124.841110 314.174957,172.675827 290.120941,220.784943 
	C338.460785,220.784943 386.138275,220.784943 434.503510,220.784943 
	C432.357635,216.396622 430.283112,212.639832 428.667480,208.695068 
	C427.397247,205.593536 425.502319,204.763977 422.214386,204.777298 
	C389.062958,204.911667 355.910797,204.859131 322.758820,204.859116 
	C320.991760,204.859116 319.224731,204.859116 316.569885,204.859116 
	C331.964844,174.076981 346.984467,144.045288 362.403290,113.215424 
	C372.335419,133.118713 381.771606,152.028183 391.553894,171.631134 
	C378.946045,171.631134 367.467499,171.575882 355.990692,171.692810 
	C354.335114,171.709686 351.825012,172.038010 351.186432,173.105301 
	C348.431641,177.709747 346.226379,182.642975 343.551788,187.995468 
	C354.522278,187.995468 364.511139,187.995468 375.500000,187.995468 
z"/>
<path fill="#FEFEFF" opacity="1.000000" stroke="none" 
	d="
M375.000000,187.995468 
	C364.511139,187.995468 354.522278,187.995468 343.551788,187.995468 
	C346.226379,182.642975 348.431641,177.709747 351.186432,173.105301 
	C351.825012,172.038010 354.335114,171.709686 355.990692,171.692810 
	C367.467499,171.575882 378.946045,171.631134 391.553894,171.631134 
	C381.771606,152.028183 372.335419,133.118713 362.403290,113.215424 
	C346.984467,144.045288 331.964844,174.076981 316.569885,204.859116 
	C319.224731,204.859116 320.991760,204.859116 322.758820,204.859116 
	C355.910797,204.859131 389.062958,204.911667 422.214386,204.777298 
	C425.502319,204.763977 427.397247,205.593536 428.667480,208.695068 
	C430.283112,212.639832 432.357635,216.396622 434.503510,220.784943 
	C386.138275,220.784943 338.460785,220.784943 290.120941,220.784943 
	C314.174957,172.675827 338.091797,124.841110 362.361176,76.301277 
	C381.103210,113.783257 399.445892,150.466644 418.211334,187.995468 
	C403.552307,187.995468 389.526154,187.995468 375.000000,187.995468 
z"/>
</svg>